<svg width="16" height="15" fill="none" xmlns="http://www.w3.org/2000/svg"><path d="M8.52.07a7.5 7.5 0 00-4.02 14.3c-.05-.57 0-1.15.12-1.71l.97-4.1a2.8 2.8 0 01-.24-1.18c0-1.12.64-1.95 1.44-1.95a1 1 0 011 1.13c0 .68-.42 1.7-.65 2.66a1.16 1.16 0 001.18 1.44c1.42 0 2.38-1.82 2.38-3.97 0-1.65-1.1-2.9-3.11-2.9a3.56 3.56 0 00-3.7 3.6c-.02.54.15 1.06.49 1.48a.36.36 0 01.12.42 27.88 27.88 0 01-.2.7.27.27 0 01-.34.08C2.92 9.65 2.43 8.5 2.43 7.2c0-2.13 1.8-4.69 5.37-4.69 2.85 0 4.74 2.09 4.74 4.31 0 2.93-1.63 5.14-4.05 5.14a2.15 2.15 0 01-1.84-.94l-.51 2.07c-.18.57-.44 1.1-.77 1.6A7.5 7.5 0 108.53.07z" fill="#fff"/></svg>