<svg width="15" height="13" fill="none" xmlns="http://www.w3.org/2000/svg"><path d="M15 1.54c-.56.27-1.16.44-1.77.52A3.26 3.26 0 0014.6.24c-.6.39-1.27.66-1.96.8a2.91 2.91 0 00-3.7-.65 3.2 3.2 0 00-1.35 1.54c-.28.66-.35 1.4-.2 2.1a8.32 8.32 0 01-3.5-1A8.87 8.87 0 011.03.6 3.44 3.44 0 002 4.98a2.92 2.92 0 01-1.4-.4v.03c0 .76.25 1.5.7 2.08.45.59 1.08 1 1.77 1.14-.45.13-.93.15-1.39.06.2.65.58 1.22 1.1 1.63.51.4 1.13.63 1.78.65A6.04 6.04 0 010 11.53 8.32 8.32 0 004.72 13c5.66 0 8.75-5 8.75-9.33v-.43A6.5 6.5 0 0015 1.54z" fill="#fff"/></svg>