<svg width="15" height="15" fill="none" xmlns="http://www.w3.org/2000/svg"><path d="M7.5 0c2.04 0 2.3 0 3.1.04.79.04 1.33.17 1.81.35.5.2.91.45 1.33.87.38.37.68.83.87 1.33.18.48.3 1.02.35 1.82.03.8.04 1.05.04 3.09s0 2.3-.04 3.1c-.04.79-.17 1.33-.35 1.81-.2.5-.49.96-.87 1.33-.37.38-.83.68-1.33.87-.48.18-1.02.3-1.82.35-.8.03-1.05.04-3.09.04s-2.3 0-3.1-.04a5.55 5.55 0 01-1.81-.35c-.5-.2-.96-.49-1.33-.87a3.68 3.68 0 01-.87-1.33 5.52 5.52 0 01-.35-1.82C.01 9.8 0 9.54 0 7.5s0-2.3.04-3.1c.04-.8.18-1.32.36-1.8.2-.5.49-.96.87-1.33C1.64.89 2.1.59 2.6.4A5.52 5.52 0 014.4.04C5.2.01 5.46 0 7.5 0zm0 3.75a3.75 3.75 0 100 7.5 3.75 3.75 0 000-7.5zm4.88-.19a.94.94 0 10-1.88 0 .94.94 0 001.88 0zM7.5 5.25a2.25 2.25 0 110 4.5 2.25 2.25 0 010-4.5z" fill="#fff"/></svg>